<svg xmlns="http://www.w3.org/2000/svg" viewBox="0 0 352 195.9"><defs><style>.cls-1{fill:#11161a;}.cls-2{fill:#1089ff;}</style></defs><title>Asset 6</title><g id="Layer_2" data-name="Layer 2"><g id="Layer_1-2" data-name="Layer 1"><path class="cls-1" d="M52.48,125.84l-5-11.15A1.3,1.3,0,0,0,45.9,114L28,120.44a1.33,1.33,0,0,1-.88,0L8.72,113.7h-.8L2.46,125.84a1.27,1.27,0,0,1-1.17.76h0a1.29,1.29,0,0,1-1.18-1.8L25.49,66.67a1.27,1.27,0,0,1,1.18-.77h1.71a1.28,1.28,0,0,1,1.18.77L55,124.8a1.28,1.28,0,0,1-1.17,1.8h-.2A1.3,1.3,0,0,1,52.48,125.84ZM44.1,108.6H11a1.29,1.29,0,0,0-1.18.77l-.15.34a1.28,1.28,0,0,0,.74,1.74l16.7,5.9a1.27,1.27,0,0,0,.86,0l16.68-5.93a1.28,1.28,0,0,0,.8-1.62l-.11-.32A1.29,1.29,0,0,0,44.1,108.6ZM26.35,71.79l-14,32.11a1.29,1.29,0,0,0,1.18,1.8H41.65a1.29,1.29,0,0,0,1.18-1.81L28.71,71.79A1.29,1.29,0,0,0,26.35,71.79Z"/><path class="cls-1" d="M112.58,125.84l-5-11.15A1.3,1.3,0,0,0,106,114l-17.94,6.44a1.33,1.33,0,0,1-.88,0L68.82,113.7H68l-5.46,12.14a1.27,1.27,0,0,1-1.17.76h0a1.29,1.29,0,0,1-1.18-1.8L85.59,66.67a1.27,1.27,0,0,1,1.18-.77h1.71a1.28,1.28,0,0,1,1.18.77l25.47,58.13a1.28,1.28,0,0,1-1.18,1.8h-.19A1.3,1.3,0,0,1,112.58,125.84ZM104.2,108.6H71.08a1.29,1.29,0,0,0-1.18.77l-.15.34a1.28,1.28,0,0,0,.74,1.74l16.7,5.9a1.27,1.27,0,0,0,.86,0l16.68-5.93a1.27,1.27,0,0,0,.79-1.62l-.1-.32A1.29,1.29,0,0,0,104.2,108.6ZM86.45,71.79l-14,32.11a1.29,1.29,0,0,0,1.18,1.8h28.16a1.29,1.29,0,0,0,1.18-1.81L88.81,71.79A1.29,1.29,0,0,0,86.45,71.79Z"/><path class="cls-1" d="M148.42,126.6h-27a1.74,1.74,0,0,1-1.74-1.74V67.74A1.74,1.74,0,0,1,121.46,66h14.66c.4,0,4.5.3,6.6.5,8.2.6,18.7,2.6,25.1,13.9a35.81,35.81,0,0,1,2.5,5.2A33.9,33.9,0,0,1,172,95.8c0,8.7-3.5,22-14.5,27.7C155.32,124.7,150.92,126.6,148.42,126.6Zm8-30.53,4.69-18.38a1.74,1.74,0,0,0-.35-1.55c-4.63-5.69-18.13-7.34-24.65-7.34H124.27a1.74,1.74,0,0,0-1.75,1.74v51.62a1.74,1.74,0,0,0,1.75,1.74h19.65c5.9,0,11.3-1,17.2-6.5.1-.4.3-.5.3-1l-5-19.47A1.79,1.79,0,0,1,156.43,96.07Zm2.91.76,3.35,12.9a1.74,1.74,0,0,0,3.26.3,36,36,0,0,0,3.27-14.23,27.35,27.35,0,0,0-3.42-13.16,1.75,1.75,0,0,0-3.22.43L159.33,96A1.67,1.67,0,0,0,159.34,96.83Z"/><path class="cls-1" d="M219.32,125.3V104.7a1.3,1.3,0,0,0-1.3-1.3h-36.8a1.3,1.3,0,0,0-1.3,1.3v20.6a1.3,1.3,0,0,1-1.3,1.3h-.2a1.3,1.3,0,0,1-1.3-1.3V67.2a1.3,1.3,0,0,1,1.3-1.3h.1a1.3,1.3,0,0,1,1.3,1.3v24a1.3,1.3,0,0,0,1.3,1.3h36.8a1.3,1.3,0,0,0,1.3-1.3v-24a1.3,1.3,0,0,1,1.3-1.3h.1a1.3,1.3,0,0,1,1.3,1.3v58.1a1.3,1.3,0,0,1-1.3,1.3h0A1.3,1.3,0,0,1,219.32,125.3Zm-1.4-30h-36.7a1.3,1.3,0,0,0-1.3,1.3v2.7a1.3,1.3,0,0,0,1.3,1.3h36.7a1.3,1.3,0,0,0,1.3-1.3V96.6A1.3,1.3,0,0,0,217.92,95.3Z"/><path class="cls-1" d="M254,100.51a1.07,1.07,0,0,0-.14.47l-1.44,42.46h0L251.09,101a.86.86,0,0,0-.14-.47l-19.6-30.85h0l20.38,26.71a.92.92,0,0,0,1.5,0l32.13-45.18h0ZM251.9,86.88l-8.6-13.26a.67.67,0,0,1,.57-1h.66a1,1,0,0,1,.83.45l6.55,10A.67.67,0,0,0,253,83l6.54-10a1,1,0,0,1,.84-.45H261a.68.68,0,0,1,.57,1L253,86.88A.68.68,0,0,1,251.9,86.88Z"/><path class="cls-1" d="M320.18,126.29l-5-11.15a1.3,1.3,0,0,0-1.61-.69l-17.94,6.44a1.33,1.33,0,0,1-.88,0l-18.36-6.74h-.8l-5.46,12.14a1.3,1.3,0,0,1-1.17.76h0a1.29,1.29,0,0,1-1.18-1.8l25.37-58.13a1.29,1.29,0,0,1,1.18-.77h1.72a1.29,1.29,0,0,1,1.18.77l25.47,58.13a1.28,1.28,0,0,1-1.18,1.8h-.19A1.3,1.3,0,0,1,320.18,126.29Zm-8.38-17.24H278.68a1.29,1.29,0,0,0-1.18.77l-.15.34a1.28,1.28,0,0,0,.74,1.74l16.7,5.9a1.27,1.27,0,0,0,.86,0l16.68-5.93a1.28,1.28,0,0,0,.79-1.62l-.1-.32A1.29,1.29,0,0,0,311.8,109.05ZM294.05,72.24l-14,32.11a1.29,1.29,0,0,0,1.18,1.8h28.16a1.29,1.29,0,0,0,1.18-1.81L296.4,72.24A1.28,1.28,0,0,0,294.05,72.24Z"/><rect class="cls-2" x="252.55" y="162.18" width="3" height="33.72" rx="1.48"/><path class="cls-2" d="M254.05,31.59a1.48,1.48,0,0,1-1.48-1.48V1.48A1.48,1.48,0,0,1,254.05,0h0a1.48,1.48,0,0,1,1.48,1.48V30.11a1.48,1.48,0,0,1-1.48,1.48Z"/><rect class="cls-2" x="320.12" y="96.45" width="31.88" height="3" rx="1.48"/><rect class="cls-2" x="293.23" y="151.82" width="3" height="33.19" rx="1.48" transform="translate(-44.72 169.91) rotate(-30)"/><rect class="cls-2" x="211.6" y="10.97" width="3" height="32.12" rx="1.48" transform="translate(15.03 110.16) rotate(-30)"/><rect class="cls-2" x="323.3" y="122.54" width="3" height="32.52" rx="1.48" transform="translate(42.21 350.69) rotate(-60)"/><rect class="cls-2" x="181.92" y="40.78" width="3" height="32.79" rx="1.48" transform="translate(42.19 187.43) rotate(-60)"/><rect class="cls-2" x="166.96" y="136.96" width="33.85" height="3" rx="1.48" transform="translate(-44.59 110.47) rotate(-29.99)"/><rect class="cls-2" x="309.54" y="55.33" width="31.44" height="3" rx="1.48" transform="translate(15.15 170.22) rotate(-29.99)"/><rect class="cls-2" x="196.59" y="166.58" width="33.96" height="3" rx="1.48" transform="translate(-38.78 268.97) rotate(-60)"/><rect class="cls-2" x="279.53" y="25.19" width="31.33" height="3" rx="1.48" transform="translate(124.51 269.01) rotate(-60.01)"/><rect class="cls-2" x="249.51" y="97.67" width="5.86" height="5.86" rx="2.93" transform="translate(2.8 207.97) rotate(-45)"/></g></g></svg>